<svg width="694" height="265" viewBox="0 0 694 265" fill="none" xmlns="http://www.w3.org/2000/svg">
<path d="M0 214V129.958H57.204V145.708H20.412V165.742H52.164V181.744H20.412V214H0Z" fill="#FFF4DE"/>
<path d="M320 214V129.958H340.412V163.978H371.282V129.958H391.568V214H371.282V180.61H340.412V214H320Z" fill="#FFF4DE"/>
<path d="M432.098 215.89C421.346 215.89 413.24 213.034 407.78 207.322C402.404 201.526 399.716 193.042 399.716 181.87C399.716 169.858 402.446 161.248 407.906 156.04C413.45 150.748 421.514 148.102 432.098 148.102C439.238 148.102 445.202 149.32 449.99 151.756C454.862 154.108 458.516 157.762 460.952 162.718C463.472 167.674 464.732 174.058 464.732 181.87C464.732 193.042 461.918 201.526 456.29 207.322C450.662 213.034 442.598 215.89 432.098 215.89ZM432.098 200.896C435.206 200.896 437.768 200.182 439.784 198.754C441.884 197.242 443.438 195.1 444.446 192.328C445.538 189.472 446.084 185.986 446.084 181.87C446.084 177.166 445.538 173.47 444.446 170.782C443.438 168.01 441.884 166.036 439.784 164.86C437.684 163.6 435.122 162.97 432.098 162.97C428.906 162.97 426.302 163.6 424.286 164.86C422.27 166.12 420.758 168.136 419.75 170.908C418.826 173.596 418.364 177.25 418.364 181.87C418.364 188.254 419.456 193.042 421.64 196.234C423.908 199.342 427.394 200.896 432.098 200.896Z" fill="#FFF4DE"/>
<path d="M501.358 215.89C495.478 215.89 490.27 214.966 485.734 213.118C481.198 211.27 477.67 208.456 475.15 204.676C472.63 200.812 471.37 195.814 471.37 189.682V150.244H490.144V188.17C490.144 192.202 491.026 195.226 492.79 197.242C494.638 199.174 497.536 200.14 501.484 200.14C505.516 200.14 508.414 199.174 510.178 197.242C511.942 195.226 512.824 192.202 512.824 188.17V150.244H530.464V189.682C530.464 198.754 527.86 205.39 522.652 209.59C517.444 213.79 510.346 215.89 501.358 215.89Z" fill="#FFF4DE"/>
<path d="M559.27 215.89C554.734 215.89 550.828 215.386 547.552 214.378C544.36 213.454 541.336 212.404 538.48 211.228V194.722C540.244 195.898 542.218 197.116 544.402 198.376C546.586 199.552 548.98 200.518 551.584 201.274C554.272 202.03 557.086 202.408 560.026 202.408C563.05 202.408 565.15 201.904 566.326 200.896C567.586 199.804 568.216 198.502 568.216 196.99C568.216 195.562 567.586 194.428 566.326 193.588C565.066 192.664 563.428 191.908 561.412 191.32C559.396 190.732 557.254 190.186 554.986 189.682C552.97 189.262 550.954 188.632 548.938 187.792C546.922 186.868 545.116 185.65 543.52 184.138C541.924 182.626 540.622 180.778 539.614 178.594C538.69 176.326 538.228 173.596 538.228 170.404C538.228 166.288 539.026 162.886 540.622 160.198C542.218 157.426 544.318 155.2 546.922 153.52C549.526 151.84 552.34 150.664 555.364 149.992C558.388 149.236 561.328 148.9 564.184 148.984C569.392 149.152 573.508 149.74 576.532 150.748C579.64 151.672 582.454 152.89 584.974 154.402V169.144C582.118 167.548 579.262 166.078 576.406 164.734C573.634 163.306 570.442 162.592 566.83 162.592C563.554 162.592 561.202 163.096 559.774 164.104C558.346 165.112 557.632 166.456 557.632 168.136C557.632 169.732 558.094 170.992 559.018 171.916C560.026 172.84 561.328 173.596 562.924 174.184C564.52 174.688 566.284 175.192 568.216 175.696C570.316 176.2 572.458 176.83 574.642 177.586C576.91 178.258 579.01 179.266 580.942 180.61C582.958 181.87 584.554 183.676 585.73 186.028C586.99 188.296 587.62 191.32 587.62 195.1C587.536 200.224 586.15 204.34 583.462 207.448C580.774 210.472 577.288 212.656 573.004 214C568.804 215.26 564.226 215.89 559.27 215.89Z" fill="#FFF4DE"/>
<path d="M626.224 215.89C619.84 215.89 614.17 214.588 609.214 211.984C604.342 209.296 600.52 205.516 597.748 200.644C595.06 195.688 593.716 189.808 593.716 183.004C593.716 171.916 596.446 163.348 601.906 157.3C607.45 151.168 615.346 148.102 625.594 148.102C632.65 148.102 638.32 149.614 642.604 152.638C646.972 155.662 650.164 160.072 652.18 165.868C654.196 171.664 655.162 178.72 655.078 187.036H606.568L604.552 175.066H639.58L636.808 180.988C636.724 174.184 635.758 169.396 633.91 166.624C632.062 163.852 629.038 162.466 624.838 162.466C622.486 162.466 620.344 163.054 618.412 164.23C616.564 165.406 615.094 167.38 614.002 170.152C612.994 172.84 612.49 176.578 612.49 181.366C612.49 187.414 613.918 192.076 616.774 195.352C619.714 198.628 624.376 200.266 630.76 200.266C633.112 200.266 635.422 200.014 637.69 199.51C640.042 198.922 642.226 198.25 644.242 197.494C646.258 196.738 647.98 196.066 649.408 195.478V211.606C646.384 212.866 642.982 213.874 639.202 214.63C635.506 215.47 631.18 215.89 626.224 215.89Z" fill="#FFF4DE"/>
<path d="M88.94 215.89C85.076 215.89 81.422 215.512 77.978 214.756C74.618 214.084 71.636 212.95 69.032 211.354C66.512 209.674 64.538 207.448 63.11 204.676C61.682 201.82 60.968 198.292 60.968 194.092C60.968 190.144 61.766 186.7 63.362 183.76C65.042 180.82 67.562 178.552 70.922 176.956C74.282 175.36 78.524 174.562 83.648 174.562C86.504 174.562 89.276 174.856 91.964 175.444C94.652 176.032 97.046 176.83 99.146 177.838C101.33 178.846 103.052 179.938 104.312 181.114L105.068 190.186C103.388 189.178 101.372 188.38 99.02 187.792C96.668 187.204 94.148 186.91 91.46 186.91C87.344 186.91 84.32 187.54 82.388 188.8C80.54 189.976 79.616 191.866 79.616 194.47C79.616 196.066 80.078 197.494 81.002 198.754C81.926 200.014 83.144 200.98 84.656 201.652C86.252 202.324 87.89 202.66 89.57 202.66C93.854 202.66 96.836 202.366 98.516 201.778C100.28 201.19 101.162 200.014 101.162 198.25V174.814C101.162 170.95 99.902 168.178 97.382 166.498C94.946 164.734 91.46 163.852 86.924 163.852C83.228 163.852 79.49 164.524 75.71 165.868C72.014 167.128 68.99 168.682 66.638 170.53V153.898C68.822 152.554 72.182 151.294 76.718 150.118C81.338 148.942 86.504 148.354 92.216 148.354C94.232 148.354 96.458 148.522 98.894 148.858C101.33 149.194 103.766 149.824 106.202 150.748C108.638 151.588 110.864 152.848 112.88 154.528C114.98 156.208 116.66 158.35 117.92 160.954C119.18 163.558 119.81 166.792 119.81 170.656L119.684 200.77C119.684 204.382 118.466 207.322 116.03 209.59C113.594 211.774 110.066 213.37 105.446 214.378C100.91 215.386 95.408 215.89 88.94 215.89Z" fill="#FFF4DE"/>
<path d="M158.602 215.89C155.074 215.89 151.546 215.638 148.018 215.134C144.574 214.714 141.424 213.916 138.568 212.74C135.796 211.48 133.57 209.8 131.89 207.7C130.21 205.516 129.37 202.702 129.37 199.258V126.682H147.766V161.458L144.238 155.536C145.75 153.772 147.682 152.386 150.034 151.378C152.386 150.286 154.78 149.53 157.216 149.11C159.652 148.69 161.668 148.48 163.264 148.48C172.672 148.48 179.812 151.336 184.684 157.048C189.64 162.676 192.118 170.95 192.118 181.87C192.118 188.254 191.278 193.63 189.598 197.998C187.918 202.366 185.566 205.852 182.542 208.456C179.518 211.06 175.99 212.95 171.958 214.126C167.926 215.302 163.474 215.89 158.602 215.89ZM158.35 200.266C162.046 200.266 164.986 199.552 167.17 198.124C169.354 196.612 170.908 194.554 171.832 191.95C172.84 189.346 173.344 186.364 173.344 183.004C173.344 178.216 172.714 174.394 171.454 171.538C170.194 168.682 168.472 166.624 166.288 165.364C164.104 164.104 161.584 163.474 158.728 163.474C157.048 163.474 155.2 163.684 153.184 164.104C151.168 164.524 149.362 165.196 147.766 166.12V194.344C147.766 195.856 148.228 197.032 149.152 197.872C150.076 198.712 151.336 199.342 152.932 199.762C154.612 200.098 156.418 200.266 158.35 200.266Z" fill="#FFF4DE"/>
<path d="M232.224 215.89C225.84 215.89 220.17 214.588 215.214 211.984C210.342 209.296 206.52 205.516 203.748 200.644C201.06 195.688 199.716 189.808 199.716 183.004C199.716 171.916 202.446 163.348 207.906 157.3C213.45 151.168 221.346 148.102 231.594 148.102C238.65 148.102 244.32 149.614 248.604 152.638C252.972 155.662 256.164 160.072 258.18 165.868C260.196 171.664 261.162 178.72 261.078 187.036H212.568L210.552 175.066H245.58L242.808 180.988C242.724 174.184 241.758 169.396 239.91 166.624C238.062 163.852 235.038 162.466 230.838 162.466C228.486 162.466 226.344 163.054 224.412 164.23C222.564 165.406 221.094 167.38 220.002 170.152C218.994 172.84 218.49 176.578 218.49 181.366C218.49 187.414 219.918 192.076 222.774 195.352C225.714 198.628 230.376 200.266 236.76 200.266C239.112 200.266 241.422 200.014 243.69 199.51C246.042 198.922 248.226 198.25 250.242 197.494C252.258 196.738 253.98 196.066 255.408 195.478V211.606C252.384 212.866 248.982 213.874 245.202 214.63C241.506 215.47 237.18 215.89 232.224 215.89Z" fill="#FFF4DE"/>
<path d="M269.37 214V156.922C270.546 155.914 272.646 154.78 275.67 153.52C278.694 152.176 282.138 151 286.002 149.992C289.95 148.9 293.898 148.354 297.846 148.354C301.794 148.354 304.902 148.648 307.17 149.236C309.438 149.824 311.16 150.58 312.336 151.504V165.238C310.908 164.902 309.102 164.65 306.918 164.482C304.734 164.314 302.466 164.23 300.114 164.23C297.762 164.146 295.536 164.146 293.436 164.23C291.336 164.314 289.572 164.482 288.144 164.734V214H269.37Z" fill="#FFF4DE"/>
<path d="M288.054 224.5H269.054V264.5H693.054V89.5L481.054 0L269.054 89.5V138.5H288.054V102L481.054 20.5L674.054 102V245.5H288.054V224.5Z" fill="#FFF4DE"/>
</svg>
